<svg width="150" height="141" viewBox="0 0 150 141" fill="none" xmlns="http://www.w3.org/2000/svg">
<path d="M86.8782 126.751C96.778 125.885 105.073 137.757 114.886 136.189C123.988 134.734 130.121 125.861 136.131 118.882C142.04 112.02 151.569 104.541 149.78 95.6696C147.415 83.9436 129.594 80.5324 126.089 69.0944C123.886 61.9052 133.34 55.9879 135.404 48.7578C138.447 38.0995 151.22 20.9869 141.163 16.2976C127.888 10.1075 114.991 29.1294 100.759 32.6029C95.9649 33.7728 90.101 32.9022 86.3775 29.6686C77.033 21.5534 75.5298 4.69742 63.8599 0.558438C55.7664 -2.3121 48.9529 8.76423 42.1317 13.9758C35.3859 19.1297 26.5292 23.2372 23.7062 31.2366C20.7577 39.5917 30.4289 49.3177 26.8057 57.4038C21.816 68.5399 4.163 70.9336 0.679468 82.627C-2.24977 92.4599 4.88905 102.995 10.7045 111.452C16.4473 119.803 25.0912 125.66 33.8208 130.822C42.0964 135.715 50.9843 141.674 60.5736 140.938C70.595 140.169 76.8655 127.627 86.8782 126.751Z" fill="#D14DFF"/>
<path d="M110.969 46H50.0312C46.1479 46 43 49.148 43 53.0313V104.594C43 108.477 46.1479 111.625 50.0312 111.625H110.969C114.852 111.625 118 108.477 118 104.594V53.0313C118 49.148 114.852 46 110.969 46ZM110.09 104.594H50.9102C50.6771 104.594 50.4535 104.501 50.2887 104.336C50.1238 104.172 50.0312 103.948 50.0312 103.715V53.9102C50.0312 53.6771 50.1238 53.4535 50.2887 53.2887C50.4535 53.1239 50.6771 53.0313 50.9102 53.0313H110.09C110.323 53.0313 110.546 53.1239 110.711 53.2887C110.876 53.4535 110.969 53.6771 110.969 53.9102V103.715C110.969 103.948 110.876 104.172 110.711 104.336C110.546 104.501 110.323 104.594 110.09 104.594ZM103.938 91.1172V94.6329C103.938 95.6036 103.15 96.3907 102.18 96.3907H72.8828C71.9121 96.3907 71.125 95.6036 71.125 94.6329V91.1172C71.125 90.1465 71.9121 89.3594 72.8828 89.3594H102.18C103.15 89.3594 103.938 90.1465 103.938 91.1172ZM103.938 77.0547V80.5704C103.938 81.5411 103.15 82.3282 102.18 82.3282H72.8828C71.9121 82.3282 71.125 81.5411 71.125 80.5704V77.0547C71.125 76.084 71.9121 75.2969 72.8828 75.2969H102.18C103.15 75.2969 103.938 76.084 103.938 77.0547ZM103.938 62.9922V66.5078C103.938 67.4786 103.15 68.2657 102.18 68.2657H72.8828C71.9121 68.2657 71.125 67.4786 71.125 66.5078V62.9922C71.125 62.0215 71.9121 61.2344 72.8828 61.2344H102.18C103.15 61.2344 103.938 62.0215 103.938 62.9922ZM67.0234 64.75C67.0234 67.6624 64.6624 70.0235 61.75 70.0235C58.8376 70.0235 56.4766 67.6624 56.4766 64.75C56.4766 61.8376 58.8376 59.4766 61.75 59.4766C64.6624 59.4766 67.0234 61.8376 67.0234 64.75ZM67.0234 78.8125C67.0234 81.7249 64.6624 84.086 61.75 84.086C58.8376 84.086 56.4766 81.7249 56.4766 78.8125C56.4766 75.9001 58.8376 73.5391 61.75 73.5391C64.6624 73.5391 67.0234 75.9001 67.0234 78.8125ZM67.0234 92.875C67.0234 95.7874 64.6624 98.1485 61.75 98.1485C58.8376 98.1485 56.4766 95.7874 56.4766 92.875C56.4766 89.9626 58.8376 87.6016 61.75 87.6016C64.6624 87.6016 67.0234 89.9626 67.0234 92.875Z" fill="white"/>
</svg>
