<svg width="175" height="175" viewBox="0 0 175 175" fill="none" xmlns="http://www.w3.org/2000/svg">
<path d="M81.6679 7.24846C97.487 7.93445 114.126 -0.962585 128.345 6.08313C142.757 13.2237 148.894 30.2285 156.687 44.4197C164.852 59.2878 175.249 74.0245 174.995 91.0313C174.738 108.305 164.916 123.642 155.295 137.914C145.71 152.132 135.638 168.125 119.452 173.421C103.536 178.629 86.9797 169.624 70.735 165.585C56.9941 162.168 42.6405 160.209 31.3908 151.526C20.4341 143.069 13.9972 130.338 8.50315 117.552C3.18441 105.173 -0.631126 92.1482 0.0868467 78.6702C0.811271 65.0711 6.72183 52.8083 12.6046 40.5586C19.2844 26.6491 23.0533 8.77041 36.8512 2.11551C50.6574 -4.54341 66.387 6.58581 81.6679 7.24846Z" fill="#00FF38"/>
<path d="M128.824 91.5389L100.489 126.533C97.959 129.658 93.5738 127.47 93.5738 122.992V102.995H70.6362C68.393 102.995 66.5884 100.766 66.5884 97.9961V77.9994C66.5884 75.2291 68.393 73.0003 70.6362 73.0003H93.5738V53.0036C93.5738 48.546 97.9421 46.338 100.489 49.4625L128.824 84.4567C130.392 86.4147 130.392 89.5809 128.824 91.5389ZM77.3826 125.492V117.16C77.3826 115.785 76.4718 114.66 75.3586 114.66H61.1913C58.206 114.66 55.7942 111.681 55.7942 107.994V68.0011C55.7942 64.3142 58.206 61.3355 61.1913 61.3355H75.3586C76.4718 61.3355 77.3826 60.2107 77.3826 58.836V50.504C77.3826 49.1292 76.4718 48.0044 75.3586 48.0044H61.1913C52.2523 48.0044 45 56.9613 45 68.0011V107.994C45 119.034 52.2523 127.991 61.1913 127.991H75.3586C76.4718 127.991 77.3826 126.866 77.3826 125.492Z" fill="white"/>
</svg>
