<svg width="175" height="175" viewBox="0 0 175 175" fill="none" xmlns="http://www.w3.org/2000/svg">
<path d="M121.282 4.39528C131.096 13.468 123.015 31.188 130.762 41.8927C136.041 49.1884 148.967 47.0055 156.187 52.6308C164.131 58.8187 178.084 66.8105 174.389 75.8801C169.266 88.4563 147.029 86.273 138.176 96.8463C133.537 102.387 143.016 111.705 139.273 117.818C135.657 123.724 124.125 121.119 119.917 126.666C112.864 135.964 116.006 150.09 108.175 158.817C100.36 167.525 88.6428 174.817 76.5475 174.997C64.9147 175.17 53.0109 168.466 45.9553 159.742C38.585 150.629 37.6607 138.075 37.4182 126.617C37.2211 117.3 50.4875 107.303 44.6861 99.7586C35.3932 87.6744 11.129 93.0285 2.13978 80.7418C-4.18871 72.0918 5.23874 60.1324 8.30237 50.0284C11.6563 38.9671 11.376 24.9049 21.1555 18.0271C31.3757 10.8393 46.5059 17.3165 58.8882 14.4517C69.3049 12.0416 77.603 4.22491 88.1753 2.52091C99.1665 0.749413 113.32 -2.96605 121.282 4.39528Z" fill="#FF6B00"/>
<path d="M44.1764 77.668L72.5111 42.6739C75.041 39.5494 79.4262 41.7365 79.4262 46.2149V66.2116H102.364C104.607 66.2116 106.412 68.4404 106.412 71.2108V91.2075C106.412 93.9778 104.607 96.2066 102.364 96.2066H79.4262V116.203C79.4262 120.661 75.0579 122.869 72.5111 119.744L44.1764 84.7502C42.6079 82.7922 42.6079 79.6261 44.1764 77.668ZM95.6174 43.7154V52.0473C95.6174 53.4221 96.5282 54.5469 97.6414 54.5469H111.809C114.794 54.5469 117.206 57.5256 117.206 61.2124V101.206C117.206 104.893 114.794 107.871 111.809 107.871H97.6414C96.5282 107.871 95.6174 108.996 95.6174 110.371V118.703C95.6174 120.078 96.5282 121.202 97.6414 121.202L111.809 121.202C120.748 121.202 128 112.246 128 101.206V61.2124C128 50.1726 120.748 41.2158 111.809 41.2158H97.6414C96.5282 41.2158 95.6174 42.3406 95.6174 43.7154Z" fill="white"/>
</svg>
