<svg width="150" height="150" viewBox="0 0 150 150" fill="none" xmlns="http://www.w3.org/2000/svg">
<path fill-rule="evenodd" clip-rule="evenodd" d="M74.1269 0.390802C90.7376 2.67419 97.9136 17.4293 110.6 25.6536C120.073 31.7946 133.867 34.6811 139.725 42.9155C145.502 51.0372 141.24 60.8763 142.163 70.021C142.958 77.9029 143.923 85.4767 144.814 93.3529C146.027 104.072 153.119 114.93 148.396 125.108C143.521 135.612 133.402 147.272 118.687 149.648C102.957 152.188 89.648 140.259 74.1269 137.098C62.9294 134.818 50.9799 136.501 40.0354 133.63C28.4404 130.588 15.9871 127.222 8.67254 119.928C1.38478 112.661 0.991583 102.916 0.192646 93.899C-0.534811 85.6888 0.795694 77.5374 4.22275 69.7068C7.48881 62.2441 16.1223 56.8472 19.6464 49.4485C25.0642 38.0739 20.0929 23.9655 30.4534 14.6363C40.6639 5.44206 58.2779 -1.78787 74.1269 0.390802Z" fill="#00D1FF"/>
<path d="M123.844 113.488L107.291 96.9378C106.544 96.1908 105.531 95.7758 104.469 95.7758H101.762C106.345 89.916 109.068 82.5456 109.068 74.5279C109.068 55.4545 93.6104 40 74.5338 40C55.4572 40 40 55.4545 40 74.5279C40 93.6012 55.4572 109.056 74.5338 109.056C82.5529 109.056 89.9246 106.333 95.7853 101.752V104.458C95.7853 105.52 96.2004 106.533 96.9475 107.28L113.5 123.83C115.061 125.39 117.585 125.39 119.129 123.83L123.827 119.132C125.388 117.572 125.388 115.048 123.844 113.488ZM74.5338 95.7758C62.7956 95.7758 53.2822 86.2806 53.2822 74.5279C53.2822 62.7917 62.779 53.28 74.5338 53.28C86.2719 53.28 95.7853 62.7751 95.7853 74.5279C95.7853 86.264 86.2885 95.7758 74.5338 95.7758Z" fill="white"/>
</svg>
